<svg width="230" height="60" viewBox="0 0 230 60" fill="none" xmlns="http://www.w3.org/2000/svg">
<rect width="230" height="60" rx="3" fill="#612370"/>
<path d="M39.738 11.0156H34.7757L28.5124 22.0597H32.809L37.3476 14.2532L37.5594 14.6465H41.9166L39.738 11.0156Z" fill="#B4C03A"/>
<ellipse cx="27.877" cy="14.2231" rx="2.57191" ry="2.5719" fill="#B4C03A"/>
<path d="M55.025 22.4993L52.5438 18.2018L39.8477 18.2996L41.996 22.0206L51.026 22.048L50.7912 22.4281L52.9698 26.2014L55.025 22.4993Z" fill="#FDC300"/>
<ellipse cx="46.3167" cy="13.8311" rx="2.57191" ry="2.57191" transform="rotate(60 46.3167 13.8311)" fill="#FDC300"/>
<path d="M52.7836 41.4592L55.2647 37.1618L48.8319 26.2155L46.6836 29.9365L51.1749 37.7703L50.7284 37.7571L48.5498 41.5305L52.7836 41.4592Z" fill="#0095D9"/>
<ellipse cx="55.9362" cy="29.5836" rx="2.5719" ry="2.57191" transform="rotate(120 55.9362 29.5836)" fill="#0095D9"/>
<path d="M34.9969 48.9246L39.9591 48.9246L46.2225 37.8805L41.9259 37.8805L37.3872 45.687L37.1754 45.2936L32.8183 45.2936L34.9969 48.9246Z" fill="#FE147A"/>
<ellipse cx="46.8578" cy="45.717" rx="2.57191" ry="2.5719" transform="rotate(180 46.8578 45.717)" fill="#FE147A"/>
<path d="M19.9343 37.4515L22.4154 41.7489L35.1116 41.6511L32.9633 37.9301L23.9333 37.9028L24.1681 37.5227L21.9895 33.7493L19.9343 37.4515Z" fill="#8C26A5"/>
<ellipse cx="28.6426" cy="46.1197" rx="2.5719" ry="2.57191" transform="rotate(-120 28.6426 46.1197)" fill="#8C26A5"/>
<path d="M22.2164 18.4307L19.7353 22.7281L26.1681 33.6743L28.3164 29.9534L23.8251 22.1195L24.2716 22.1328L26.4502 18.3594L22.2164 18.4307Z" fill="#01AC02"/>
<ellipse cx="19.0637" cy="30.3064" rx="2.5719" ry="2.57191" transform="rotate(-60 19.0637 30.3064)" fill="#01AC02"/>
<path d="M66.2727 22.2614V18.7273H84.8409V22.2614H77.6477V42H73.4659V22.2614H66.2727ZM93.4347 42.3409C91.6847 42.3409 90.1733 41.9773 88.9006 41.25C87.6354 40.5152 86.6619 39.4773 85.9801 38.1364C85.2983 36.7879 84.9574 35.2008 84.9574 33.375C84.9574 31.5795 85.2983 30.0038 85.9801 28.6477C86.6695 27.2841 87.6316 26.2235 88.8665 25.4659C90.1013 24.7008 91.5521 24.3182 93.2188 24.3182C94.2945 24.3182 95.3097 24.4924 96.2642 24.8409C97.2263 25.1818 98.0748 25.7121 98.8097 26.4318C99.5521 27.1515 100.135 28.0682 100.56 29.1818C100.984 30.2879 101.196 31.6061 101.196 33.1364V34.3977H86.8892V31.625H97.2528C97.2453 30.8371 97.0748 30.1364 96.7415 29.5227C96.4081 28.9015 95.9422 28.4129 95.3438 28.0568C94.7528 27.7008 94.0634 27.5227 93.2756 27.5227C92.4347 27.5227 91.696 27.7273 91.0597 28.1364C90.4233 28.5379 89.9271 29.0682 89.571 29.7273C89.2225 30.3788 89.0445 31.0947 89.0369 31.875V34.2955C89.0369 35.3106 89.2225 36.1818 89.5938 36.9091C89.965 37.6288 90.4839 38.1818 91.1506 38.5682C91.8172 38.947 92.5975 39.1364 93.4915 39.1364C94.09 39.1364 94.6316 39.053 95.1165 38.8864C95.6013 38.7121 96.0218 38.4583 96.3778 38.125C96.7339 37.7917 97.0028 37.3788 97.1847 36.8864L101.026 37.3182C100.783 38.3333 100.321 39.2197 99.6392 39.9773C98.965 40.7273 98.1013 41.3106 97.0483 41.7273C95.9953 42.1364 94.7907 42.3409 93.4347 42.3409ZM109.699 42.3523C108.593 42.3523 107.597 42.1553 106.71 41.7614C105.831 41.3598 105.134 40.7689 104.619 39.9886C104.112 39.2083 103.858 38.2462 103.858 37.1023C103.858 36.1174 104.04 35.303 104.403 34.6591C104.767 34.0152 105.263 33.5 105.892 33.1136C106.521 32.7273 107.229 32.4356 108.017 32.2386C108.813 32.0341 109.634 31.8864 110.483 31.7955C111.506 31.6894 112.335 31.5947 112.972 31.5114C113.608 31.4205 114.07 31.2841 114.358 31.1023C114.653 30.9129 114.801 30.6212 114.801 30.2273V30.1591C114.801 29.303 114.547 28.6402 114.04 28.1705C113.532 27.7008 112.801 27.4659 111.847 27.4659C110.839 27.4659 110.04 27.6856 109.449 28.125C108.866 28.5644 108.472 29.0833 108.267 29.6818L104.426 29.1364C104.729 28.0758 105.229 27.1894 105.926 26.4773C106.623 25.7576 107.475 25.2197 108.483 24.8636C109.491 24.5 110.604 24.3182 111.824 24.3182C112.665 24.3182 113.502 24.4167 114.335 24.6136C115.169 24.8106 115.93 25.1364 116.619 25.5909C117.309 26.0379 117.862 26.6477 118.278 27.4205C118.703 28.1932 118.915 29.1591 118.915 30.3182V42H114.96V39.6023H114.824C114.574 40.0871 114.222 40.5417 113.767 40.9659C113.32 41.3826 112.756 41.7197 112.074 41.9773C111.4 42.2273 110.608 42.3523 109.699 42.3523ZM110.767 39.3295C111.593 39.3295 112.309 39.1667 112.915 38.8409C113.521 38.5076 113.987 38.0682 114.312 37.5227C114.646 36.9773 114.812 36.3826 114.812 35.7386V33.6818C114.684 33.7879 114.464 33.8864 114.153 33.9773C113.85 34.0682 113.509 34.1477 113.131 34.2159C112.752 34.2841 112.377 34.3447 112.006 34.3977C111.634 34.4508 111.313 34.4962 111.04 34.5341C110.426 34.6174 109.877 34.7538 109.392 34.9432C108.907 35.1326 108.525 35.3977 108.244 35.7386C107.964 36.072 107.824 36.5038 107.824 37.0341C107.824 37.7917 108.1 38.3636 108.653 38.75C109.206 39.1364 109.911 39.3295 110.767 39.3295ZM123.051 42V24.5455H126.983V27.5114H127.188C127.551 26.5114 128.153 25.7311 128.994 25.1705C129.835 24.6023 130.839 24.3182 132.006 24.3182C133.188 24.3182 134.184 24.6061 134.994 25.1818C135.813 25.75 136.388 26.5265 136.722 27.5114H136.903C137.29 26.5417 137.941 25.7689 138.858 25.1932C139.782 24.6098 140.877 24.3182 142.142 24.3182C143.748 24.3182 145.059 24.8258 146.074 25.8409C147.089 26.8561 147.597 28.3371 147.597 30.2841V42H143.472V30.9205C143.472 29.8371 143.184 29.0455 142.608 28.5455C142.032 28.0379 141.328 27.7841 140.494 27.7841C139.502 27.7841 138.725 28.0947 138.165 28.7159C137.612 29.3295 137.335 30.1288 137.335 31.1136V42H133.301V30.75C133.301 29.8485 133.028 29.1288 132.483 28.5909C131.945 28.053 131.241 27.7841 130.369 27.7841C129.778 27.7841 129.241 27.9356 128.756 28.2386C128.271 28.5341 127.884 28.9545 127.597 29.5C127.309 30.0379 127.165 30.6667 127.165 31.3864V42H123.051ZM149.46 22.2614V18.7273H168.028V22.2614H160.835V42H156.653V22.2614H149.46ZM174.074 42.3523C172.968 42.3523 171.972 42.1553 171.085 41.7614C170.206 41.3598 169.509 40.7689 168.994 39.9886C168.487 39.2083 168.233 38.2462 168.233 37.1023C168.233 36.1174 168.415 35.303 168.778 34.6591C169.142 34.0152 169.638 33.5 170.267 33.1136C170.896 32.7273 171.604 32.4356 172.392 32.2386C173.188 32.0341 174.009 31.8864 174.858 31.7955C175.881 31.6894 176.71 31.5947 177.347 31.5114C177.983 31.4205 178.445 31.2841 178.733 31.1023C179.028 30.9129 179.176 30.6212 179.176 30.2273V30.1591C179.176 29.303 178.922 28.6402 178.415 28.1705C177.907 27.7008 177.176 27.4659 176.222 27.4659C175.214 27.4659 174.415 27.6856 173.824 28.125C173.241 28.5644 172.847 29.0833 172.642 29.6818L168.801 29.1364C169.104 28.0758 169.604 27.1894 170.301 26.4773C170.998 25.7576 171.85 25.2197 172.858 24.8636C173.866 24.5 174.979 24.3182 176.199 24.3182C177.04 24.3182 177.877 24.4167 178.71 24.6136C179.544 24.8106 180.305 25.1364 180.994 25.5909C181.684 26.0379 182.237 26.6477 182.653 27.4205C183.078 28.1932 183.29 29.1591 183.29 30.3182V42H179.335V39.6023H179.199C178.949 40.0871 178.597 40.5417 178.142 40.9659C177.695 41.3826 177.131 41.7197 176.449 41.9773C175.775 42.2273 174.983 42.3523 174.074 42.3523ZM175.142 39.3295C175.968 39.3295 176.684 39.1667 177.29 38.8409C177.896 38.5076 178.362 38.0682 178.688 37.5227C179.021 36.9773 179.188 36.3826 179.188 35.7386V33.6818C179.059 33.7879 178.839 33.8864 178.528 33.9773C178.225 34.0682 177.884 34.1477 177.506 34.2159C177.127 34.2841 176.752 34.3447 176.381 34.3977C176.009 34.4508 175.688 34.4962 175.415 34.5341C174.801 34.6174 174.252 34.7538 173.767 34.9432C173.282 35.1326 172.9 35.3977 172.619 35.7386C172.339 36.072 172.199 36.5038 172.199 37.0341C172.199 37.7917 172.475 38.3636 173.028 38.75C173.581 39.1364 174.286 39.3295 175.142 39.3295ZM195.04 42.3409C193.297 42.3409 191.801 41.9583 190.551 41.1932C189.309 40.428 188.35 39.3712 187.676 38.0227C187.009 36.6667 186.676 35.1061 186.676 33.3409C186.676 31.5682 187.017 30.0038 187.699 28.6477C188.381 27.2841 189.343 26.2235 190.585 25.4659C191.835 24.7008 193.313 24.3182 195.017 24.3182C196.434 24.3182 197.688 24.5795 198.778 25.1023C199.877 25.6174 200.752 26.3485 201.403 27.2955C202.055 28.2348 202.426 29.3333 202.517 30.5909H198.585C198.426 29.75 198.047 29.0492 197.449 28.4886C196.858 27.9205 196.066 27.6364 195.074 27.6364C194.233 27.6364 193.494 27.8636 192.858 28.3182C192.222 28.7652 191.725 29.4091 191.369 30.25C191.021 31.0909 190.847 32.0985 190.847 33.2727C190.847 34.4621 191.021 35.4848 191.369 36.3409C191.718 37.1894 192.206 37.8447 192.835 38.3068C193.472 38.7614 194.218 38.9886 195.074 38.9886C195.68 38.9886 196.222 38.875 196.699 38.6477C197.184 38.4129 197.589 38.0758 197.915 37.6364C198.241 37.197 198.464 36.6629 198.585 36.0341H202.517C202.419 37.2689 202.055 38.3636 201.426 39.3182C200.797 40.2652 199.941 41.0076 198.858 41.5455C197.775 42.0758 196.502 42.3409 195.04 42.3409ZM214.611 24.5455V27.7273H204.577V24.5455H214.611ZM207.054 20.3636H211.168V36.75C211.168 37.303 211.251 37.7273 211.418 38.0227C211.592 38.3106 211.819 38.5076 212.099 38.6136C212.38 38.7197 212.69 38.7727 213.031 38.7727C213.289 38.7727 213.524 38.7538 213.736 38.7159C213.955 38.678 214.122 38.6439 214.236 38.6136L214.929 41.8295C214.709 41.9053 214.395 41.9886 213.986 42.0795C213.584 42.1705 213.092 42.2235 212.509 42.2386C211.478 42.2689 210.55 42.1136 209.724 41.7727C208.899 41.4242 208.243 40.8864 207.759 40.1591C207.281 39.4318 207.046 38.5227 207.054 37.4318V20.3636Z" fill="white"/>
</svg>
