<svg width="36" height="32" viewBox="0 0 36 32" fill="none" xmlns="http://www.w3.org/2000/svg">
<path d="M23.4884 0H19.2856L13.9809 9.35379H17.6199L21.4639 2.74207L21.6433 3.07522H25.3336L23.4884 0Z" fill="#B4C03A"/>
<ellipse cx="13.4427" cy="2.71643" rx="2.17828" ry="2.17828" fill="#B4C03A"/>
<path d="M34.4977 12.8927L32.3963 9.25298L21.6433 9.33583L23.4628 12.4873L31.1107 12.5105L30.9119 12.8324L32.757 16.0283L34.4977 12.8927Z" fill="#FDC300"/>
<ellipse cx="27.1223" cy="5.55109" rx="2.17828" ry="2.17828" transform="rotate(60 27.1223 5.55109)" fill="#FDC300"/>
<path d="M28.847 28.8966L30.9484 25.2569L25.5001 15.9859L23.6806 19.1374L27.4845 25.7723L27.1063 25.7611L25.2612 28.9569L28.847 28.8966Z" fill="#0095D9"/>
<ellipse cx="31.5173" cy="18.8386" rx="2.17828" ry="2.17828" transform="rotate(120 31.5173 18.8386)" fill="#0095D9"/>
<path d="M12.141 32L16.3438 32L21.6486 22.6462L18.0096 22.6462L14.1656 29.2579L13.9862 28.9248L10.2959 28.9248L12.141 32Z" fill="#FE147A"/>
<ellipse cx="22.1868" cy="29.2836" rx="2.17828" ry="2.17828" transform="rotate(180 22.1868 29.2836)" fill="#FE147A"/>
<path d="M1.12668 19.0682L3.22809 22.7079L13.9811 22.625L12.1616 19.4736L4.51365 19.4504L4.71247 19.1285L2.86734 15.9326L1.12668 19.0682Z" fill="#8C26A5"/>
<ellipse cx="8.50202" cy="26.4098" rx="2.17828" ry="2.17828" transform="rotate(-120 8.50202 26.4098)" fill="#8C26A5"/>
<path d="M6.80035 3.06816L4.69895 6.70789L10.1472 15.9788L11.9667 12.8274L8.16279 6.19248L8.541 6.2037L10.3861 3.00784L6.80035 3.06816Z" fill="#01AC02"/>
<ellipse cx="4.13001" cy="13.1263" rx="2.17828" ry="2.17828" transform="rotate(-60 4.13001 13.1263)" fill="#01AC02"/>
</svg>
